# xmcd CD database file
#
# Track frame offsets:
#	187
#	18867
#	41215
#	55665
#	73377
#	92065
#	121922
#	140750
#	165517
#	182860
#	201700
#
# Disc length: 2952 seconds
#
# Revision: 2
# Processed by: cddbd v1.5.2PL0 Copyright (c) Steve Scherf et al.
# Submitted via: CDex 1.51
#
DISCID=a50b860b
DTITLE=LA Blues Authority - Fit For A. King
DYEAR=1993
DGENRE=Blues
TTITLE0=Crosscut Saw  Leslie West
TTITLE1=Floodin' In California  Craig Erickson
TTITLE2=Night Stomp  Steve Hunter
TTITLE3=Oh Pretty Woman  Kevin Russell
TTITLE4=Down Don't Bother Me  Tony Spinner
TTITLE5=The Sky is Crying  Pat Travers
TTITLE6=Killing Floor  Jon Butcher
TTITLE7=I'll Play the Blues for You  Frank Marino
TTITLE8=Born Under a Bad Sign  Rick Derringer
TTITLE9=Wrapped Up In Love, Again  Ricky Medlocke
TTITLE10=Albert's Jam  Various Artists
EXTD=YEAR: 1993
EXTT0=
EXTT1=
EXTT2=
EXTT3=
EXTT4=
EXTT5=
EXTT6=
EXTT7=
EXTT8=
EXTT9=
EXTT10=
PLAYORDER=
